<?xml version="1.0" encoding="UTF-8"?>
<svg xmlns="http://www.w3.org/2000/svg" version="1.1" viewBox="0 0 900 200">
  <defs>
    <style>
      .cls-1 {
        fill: #6ded97;
      }

      .cls-2 {
        fill: #333;
      }
    </style>
  </defs>
  <!-- Generator: Adobe Illustrator 28.6.0, SVG Export Plug-In . SVG Version: 1.2.0 Build 709)  -->
  <g>
    <g id="Layer_1">
      <path class="cls-1" d="M240.6,59.6c-12.1-12.3-33.2-12.3-45.3,0l-11.3,11.6-11.4-11.6c-2.9-3-6.5-5.4-10.4-7.1-3.9-1.6-8.1-2.5-12.3-2.5s-8.4.8-12.3,2.5c-3.9,1.6-7.4,4.1-10.4,7.1l-11.3,11.6-11.3-11.6c-2.9-3-6.5-5.4-10.4-7.1-3.9-1.6-8.1-2.5-12.3-2.5s-8.4.8-12.3,2.5c-3.9,1.6-7.4,4.1-10.4,7.1-6,6.2-9.4,14.5-9.4,23.1s3.4,16.9,9.4,23.1l34,34.7c2.9,3,6.5,5.4,10.4,7.1,3.9,1.6,8.1,2.5,12.3,2.5s8.4-.8,12.3-2.5c3.9-1.6,7.4-4,10.4-7.1l11.3-11.6,11.3,11.6c2.9,3,6.5,5.4,10.4,7.1,3.9,1.6,8.1,2.5,12.3,2.5s8.4-.8,12.3-2.5c3.9-1.6,7.4-4,10.4-7.1l34-34.7c6-6.2,9.4-14.5,9.4-23.1s-3.4-16.9-9.4-23.1h0ZM66,82.7c0-4.3,1.7-8.5,4.7-11.6,1.5-1.5,3.2-2.7,5.2-3.5,1.9-.8,4-1.2,6.1-1.2s4.2.4,6.1,1.2c1.9.8,3.7,2,5.2,3.5l11.4,11.6-11.3,11.6c-2.2,2.2-5.1,3.7-8.2,4.3-3.1.6-6.3.3-9.2-.8-.2,0-.4-.2-.7-.3-.7-.3-1.4-.7-2.1-1.1-.3-.3-.7-.5-1-.8-.5-.4-1-.8-1.4-1.2-3.1-3.1-4.8-7.2-4.8-11.6ZM127.3,128.9c-1.5,1.5-3.2,2.7-5.2,3.5-1.9.8-4,1.2-6.1,1.2s-4.2-.4-6.1-1.2c-1.9-.8-3.7-2-5.2-3.5l-14.3-14.6c1.4-.4,2.7-.8,4-1.4,1.7-.7,3.3-1.6,4.9-2.7.4-.2.8-.5,1.2-.8,1.6-1.1,3-2.3,4.3-3.6l22.7-23.1,11.3-11.6c3-3,7.1-4.6,11.3-4.6s8.3,1.7,11.3,4.6l11.3,11.6-34,34.7-11.4,11.6ZM195.3,128.9c-1.5,1.5-3.2,2.7-5.2,3.5-1.9.8-4,1.2-6.1,1.2s-4.2-.4-6.1-1.2c-1.9-.8-3.7-2-5.2-3.5l-11.3-11.6,15.1-15.4,7.6-7.7,11.3,11.6c1.3,1.3,2.8,2.6,4.3,3.6.4.3.8.5,1.2.8,1.5,1,3.2,1.9,4.9,2.7,1.3.6,2.6,1,4,1.4l-14.4,14.6ZM206.7,94.2l-11.4-11.6,11.3-11.6c3-3,7.1-4.6,11.3-4.6s8.3,1.7,11.3,4.6c3,3.1,4.7,7.2,4.7,11.6s-1.7,8.5-4.7,11.6c-3,3-7.1,4.6-11.3,4.6s-8.3-1.7-11.3-4.6h0Z"/>
      <path class="cls-2" d="M301.4,51.4h17.6c.2,0,.4,0,.6.2.2.1.3.3.4.5l18.8,64.1,20.6-64.1c0-.2.2-.4.4-.5.2-.1.4-.2.6-.2h13.5c.2,0,.4,0,.6.2.2.1.3.3.4.5l20.5,64.1,19-64.1c0-.2.2-.4.4-.5.2-.1.4-.2.6-.2h17.6c.2,0,.3,0,.5,0,.1,0,.3.2.4.3,0,.1.2.3.2.4,0,.2,0,.3,0,.5l-29.7,95.3c0,.2-.2.4-.4.5-.2.1-.4.2-.6.2h-13.5c-.2,0-.4,0-.6-.2-.2-.1-.3-.3-.4-.5l-21.8-64.8-21.7,64.8c0,.2-.2.4-.4.5-.2.1-.4.2-.6.2h-13.5c-.2,0-.4,0-.6-.2-.2-.1-.3-.3-.4-.5l-29.5-95.3c0-.2,0-.3,0-.5,0-.2,0-.3.2-.4,0-.1.2-.2.4-.3.1,0,.3-.1.5-.1Z"/>
      <path class="cls-2" d="M515,51.4h16.3c.3,0,.5.1.7.3.2.2.3.4.3.7v95.3c0,.3-.1.5-.3.7-.2.2-.4.3-.7.3h-16.3c-.3,0-.5-.1-.7-.3-.2-.2-.3-.4-.3-.7V52.4c0-.3.1-.5.3-.7.2-.2.4-.3.7-.3Z"/>
      <path class="cls-2" d="M549.9,51.4h16.4c.3,0,.5.1.7.3.2.2.3.4.3.7v95.3c0,.3-.1.5-.3.7-.2.2-.4.3-.7.3h-16.4c-.3,0-.5-.1-.7-.3-.2-.2-.3-.4-.3-.7V52.4c0-.3.1-.5.3-.7.2-.2.4-.3.7-.3Z"/>
      <path class="cls-2" d="M578,125.4l13.5-6.2c.1,0,.3,0,.4,0,.1,0,.3,0,.4,0,.1,0,.2.1.3.2,0,0,.2.2.2.3,2.9,7.1,9,13.2,18.4,13.2s14.2-4,14.2-12.5-4.2-10.3-14.1-14.2l-6.2-2.3c-13.3-5.3-24.2-12.7-24.2-27.5s13.6-26.4,30-26.4,26.3,9.7,30.9,19.7c.1.2.1.5,0,.7,0,.2-.2.4-.5.6l-12.3,6.9c-.1,0-.2.1-.4.1-.1,0-.3,0-.4,0-.1,0-.2,0-.3-.2-.1,0-.2-.2-.2-.3-4-7.2-9.2-10.8-16.1-10.8s-12.2,3.4-12.2,9.9,2.9,9,13.6,13.2l6.6,2.6c17,6.8,25.5,14.5,25.5,28.3,0,19.7-17.3,29.3-33.6,29.3s-30.3-9.6-34-23.4c0-.2,0-.5,0-.7.1-.2.3-.4.5-.5Z"/>
      <path class="cls-2" d="M655.2,113c0-24.7,17.7-37,34.2-37s21,7,22.7,11h.4v-8.6c0-.3.1-.5.3-.7.2-.2.4-.3.7-.3h16.3c.3,0,.5.1.7.3.2.2.3.4.3.7v69.2c0,.3-.1.5-.3.7-.2.2-.4.3-.7.3h-16.3c-.3,0-.5-.1-.7-.3s-.3-.4-.3-.7v-8.6h-.4c-1.8,4-10,11-22.7,11s-34.2-12.3-34.2-37ZM693.2,133.6c10.3,0,19.9-7.1,19.9-20.6s-9.6-20.5-19.9-20.5-19.9,7.3-19.9,20.5,9.6,20.6,19.9,20.6h0Z"/>
      <path class="cls-2" d="M745.7,51.4h16.3c.3,0,.5.1.7.3.2.2.3.4.3.7v14.2c0,.3-.1.5-.3.7-.2.2-.4.3-.7.3h-16.3c-.3,0-.5-.1-.7-.3-.2-.2-.3-.4-.3-.7v-14.2c0-.3.1-.5.3-.7.2-.2.4-.3.7-.3ZM745.7,77.4h16.3c.3,0,.5.1.7.3.2.2.3.4.3.7v69.2c0,.3-.1.5-.3.7-.2.2-.4.3-.7.3h-16.3c-.3,0-.5-.1-.7-.3-.2-.2-.3-.4-.3-.7v-69.2c0-.3.1-.5.3-.7.2-.2.4-.3.7-.3h0Z"/>
      <path class="cls-2" d="M832.6,148.6c-.3,0-.5-.1-.7-.3-.2-.2-.3-.4-.3-.7v-8.6h-.4c-1.8,4-10,11-22.7,11s-34.2-12.3-34.2-37,17.7-37,34.2-37,21,7,22.7,11h.4v-34.6c0-.3.1-.5.3-.7.2-.2.4-.3.7-.3h16.4c.3,0,.5.1.7.3.2.2.3.4.3.7v95.3c0,.3-.1.5-.3.7-.2.2-.4.3-.7.3h-16.4ZM812.2,133.6c10.3,0,19.9-7.1,19.9-20.5s-9.6-20.5-19.9-20.5-19.9,7.3-19.9,20.5,9.6,20.6,19.9,20.6Z"/>
      <path class="cls-2" d="M466.6,135c-8.3,0-15.7-5.4-17.3-15.4,0-.2,0-.3,0-.5,0-.2,0-.3.2-.4,0-.1.2-.2.4-.3.1,0,.3,0,.5,0h50.7c.2,0,.5,0,.7-.2.2-.2.3-.4.3-.6.2-1.5.3-3,.3-4.5,0-20.4-15.9-37-35.6-37s-35.6,16.6-35.6,37,15.9,37,35.6,37c7.1,0,14.1-2.2,20-6.1,5.9-3.9,10.6-9.5,13.4-16.1,0-.2,0-.3,0-.5,0-.2,0-.3-.2-.5,0-.1-.2-.2-.4-.3-.1,0-.3-.1-.5-.1h-16.6c-.2,0-.3,0-.4.1-.1,0-.3.2-.4.3-3.7,5.2-9.2,8.2-15.1,8.2ZM449.3,105.4c2.7-9.4,9.6-13.9,17.7-13.9s15.5,4.7,17.1,14c0,.1,0,.3,0,.4,0,.1-.1.3-.2.4,0,.1-.2.2-.4.3-.1,0-.3,0-.4,0h-32.8c-.2,0-.3,0-.4-.1-.1,0-.3-.2-.4-.3,0-.1-.2-.3-.2-.4,0-.2,0-.3,0-.5Z"/>
    </g>
  </g>
</svg>