<?xml version="1.0" encoding="UTF-8"?>
<svg id="Layer_2" data-name="Layer 2" xmlns="http://www.w3.org/2000/svg" version="1.1" viewBox="0 0 337 51.3">
  <defs>
    <style>
      .cls-1 {
        fill: #fff;
        stroke-width: 0px;
      }
    </style>
  </defs>
  <g>
    <path class="cls-1" d="M51.2,10.7l9.3,11.3v-11.3h3.3v17.2h-3l-9.5-11.6v11.6h-3.3V10.7h3.1Z"/>
    <path class="cls-1" d="M77.1,25.6v1.9c-.6.3-1.3.6-2.3.6s-1.7-.6-2-1.3c-.8.9-2,1.3-2.9,1.3-1.9,0-3.7-1.1-3.7-3.2s1.5-3.3,3.8-3.9c.8-.2,1.7-.4,2.5-.5v-.3c0-1.2-.6-1.9-1.7-1.9s-2.6.5-3.8,1.4v-2.6c1-.9,2.6-1.3,4.2-1.3s2.6.4,3.3,1.1,1.1,1.7,1.1,2.9v5.5c0,.4,0,.6.4.6.3,0,.7,0,1-.3ZM71,25.8c.6,0,1.2-.3,1.6-.8v-2.8c-2.1.3-3.2,1-3.2,2.2s.6,1.3,1.7,1.3Z"/>
    <path class="cls-1" d="M79.6,24.2v-5.8h-1.7v-.8l4.8-4.6v3h3.6v2.4h-3.6v5.5c0,1.1.5,1.6,1.3,1.7h.4c.8,0,1.5-.3,2.3-.8v2.4c-.9.5-2.1.8-3.1.8-2.4,0-4-1.2-4-3.9Z"/>
    <path class="cls-1" d="M89.1,12.6c0-1,.8-1.8,1.8-1.8s1.8.8,1.8,1.8-.8,1.7-1.8,1.7-1.8-.8-1.8-1.7ZM92.4,16v11.9h-3.1v-11.9h3.1Z"/>
    <path class="cls-1" d="M94.7,21.9c0-3.6,2.8-6.2,6.5-6.2s6.5,2.6,6.5,6.2-2.2,6.2-6.5,6.2-6.5-2.7-6.5-6.2ZM98,21.9c0,2.2,1.3,3.7,3.2,3.7s3.2-1.5,3.2-3.7-1.4-3.7-3.2-3.7-3.2,1.5-3.2,3.7Z"/>
    <path class="cls-1" d="M112.8,16v1.4c.9-1.2,2.1-1.7,3.6-1.7,2.2,0,4.2,1.2,4.2,4.6v7.5h-3.1v-7.5c0-.9-.3-2.2-1.9-2.2s-2,.6-2.6,1.6v8h-3.1v-11.9h2.9Z"/>
    <path class="cls-1" d="M133.8,25.6v1.9c-.6.3-1.3.6-2.3.6s-1.7-.6-2-1.3c-.8.9-2,1.3-2.9,1.3-1.9,0-3.7-1.1-3.7-3.2s1.5-3.3,3.8-3.9c.8-.2,1.7-.4,2.5-.5v-.3c0-1.2-.6-1.9-1.7-1.9s-2.6.5-3.8,1.4v-2.6c1-.9,2.6-1.3,4.2-1.3s2.6.4,3.3,1.1,1.1,1.7,1.1,2.9v5.5c0,.4,0,.6.4.6.3,0,.7,0,1-.3ZM127.6,25.8c.6,0,1.2-.3,1.6-.8v-2.8c-2.1.3-3.2,1-3.2,2.2s.6,1.3,1.7,1.3Z"/>
    <path class="cls-1" d="M138.5,10.7v17.2h-3.1V10.7h3.1Z"/>
  </g>
  <g>
    <path class="cls-1" d="M66.4,33.5v.5h-.5c-.1.2-.2.3-.2.4v3.4c0,1.9-1,2.6-2.6,2.6s-2.6-.9-2.6-2.7v-3.3c0-.1,0-.2-.2-.3h-.5v-.7h2.9v.5h-.8c-.1.2-.2.3-.2.4v3.4c0,1.4.6,2.1,1.6,2.1s1.6-.8,1.6-2v-3.4c0-.2,0-.2-.2-.3h-.8v-.7h2.5Z"/>
    <path class="cls-1" d="M73.9,34.4v5.9h-1l-3.5-5.4v4.5c0,.1,0,.2.2.3h.8v.6h-2.7v-.5h.7c.1-.2.2-.3.2-.4v-5c0-.1,0-.2-.2-.3h-.7v-.7h2.1l3.3,5.1v-4.2c0-.1,0-.2-.2-.3h-.7v-.7h2.5v.5h-.6c-.1.2-.2.3-.2.4Z"/>
    <path class="cls-1" d="M79.1,34h-.7c-.2.2-.2.3-.2.4v5c0,.1,0,.2.2.3h.7v.6h-3v-.5h.7c.1-.2.2-.3.2-.4v-5c0-.1,0-.2-.2-.3h-.7v-.7h3v.5Z"/>
    <path class="cls-1" d="M81,34.4c0-.1-.1-.2-.3-.2h-.5v-.7h2.9v.5l-.9.2,1.8,5.1,1.6-5.1-.9-.2v-.5h2.4v.5h-.6c-.1.2-.2.2-.3.4l-2,6h-1.1l-2.2-6Z"/>
    <path class="cls-1" d="M92.7,35.3l-.2-.8c0-.1-.1-.2-.3-.3-.2,0-.5,0-.9,0h-1v2.5h2c0,0,0,.7,0,.7h-2s0,2.5,0,2.5h1.2c.4,0,.7,0,.9-.1.1,0,.2-.1.2-.3l.3-1h.6c0,.7,0,1.3-.2,2h-5.2v-.5h.7c.1-.2.2-.3.2-.4v-5c0-.1,0-.2-.2-.3h-.7v-.7h5c0,.6,0,1.1,0,1.7h-.6Z"/>
    <path class="cls-1" d="M95.5,40.4v-.5h.7c.1-.2.2-.2.2-.4v-5c0-.1,0-.2-.2-.3h-.7v-.7h1.5c.5,0,.9,0,1.5,0,1.8,0,2.5.6,2.5,1.8s-.8,1.7-1.5,1.9c.4.2.6.5.9,1l.6,1.2c0,.2.2.3.4.3h.5v.6h-1.5c-.3,0-.5-.4-.7-1l-.4-1c-.2-.4-.4-.8-.6-1h-1v2.1c0,.2,0,.2.2.3h.7v.6h-3.1ZM99.7,35.3c0-.9-.4-1.3-1.4-1.3s-.6,0-.7,0v2.8c.3,0,.8,0,1,0,.7,0,1.2-.5,1.2-1.5Z"/>
    <path class="cls-1" d="M105.5,40.5c-.9,0-1.7-.3-2.2-.6,0-.6,0-1.2,0-1.8h.7l.2,1.1c0,.1,0,.2.2.3.2.2.6.4,1.1.4.8,0,1.2-.4,1.2-1.1s-.6-1.1-1.5-1.6c-.9-.4-1.8-.9-1.8-2.1s.8-1.9,2.3-1.9,1.4.1,1.9.4c0,.6,0,1.2,0,1.7h-.7l-.2-.9c0-.1,0-.2-.2-.3-.2-.1-.5-.3-.9-.3-.7,0-1.1.4-1.1,1s.6,1,1.6,1.5c1,.5,1.9,1,1.9,2.1s-.7,2-2.5,2Z"/>
    <path class="cls-1" d="M112.4,34h-.7c-.2.2-.2.3-.2.4v5c0,.1,0,.2.2.3h.7v.6h-3v-.5h.7c.1-.2.2-.3.2-.4v-5c0-.1,0-.2-.2-.3h-.7v-.7h3v.5Z"/>
    <path class="cls-1" d="M115.1,40.4v-.5l1-.2c.1,0,.2,0,.2-.3v-5.4h-.5c-.3,0-.7,0-.8,0-.1,0-.2.1-.2.3l-.3,1.3h-.6c0-.8,0-1.5,0-2.2h6c0,.8,0,1.4,0,2.2h-.6l-.3-1.3c0-.1,0-.2-.2-.3-.2,0-.4,0-.8,0h-.5v5.4c0,.2,0,.2.2.3l1,.2v.5h-3.7Z"/>
    <path class="cls-1" d="M122.4,40.4v-.5l.8-.2c.2,0,.2,0,.2-.3v-1.7l-1.9-3.4c0-.1-.1-.2-.3-.2h-.6v-.7h2.9v.5l-.8.2,1.5,2.7,1.4-2.7-.8-.2v-.5h2.3v.5h-.5c-.1.2-.2.2-.3.3l-1.7,3.4v1.7c0,.2,0,.2.2.3l.8.2v.5h-3.4Z"/>
  </g>
  <path class="cls-1" d="M-.1,10.7v2.6s.2,0,1.9.3c2.7.5,2.8.3,2.8,2.2v16.1c0,4.9,3.7,8.8,8.2,8.8h1v-15.6l13.8,15.6h0s1,0,1,0c4.5,0,8.2-3.9,8.2-8.8V15.9c0-1.9.1-1.7,2.8-2.2,1.7-.3,1.9-.3,1.9-.3v-2.6h-13.9v15.6l-13.8-15.6M27.6,39.9l-13.8-15.6v-12.6l13.8,15.6v12.6Z"/>
  <rect id="Rectangle_946" data-name="Rectangle 946" class="cls-1" x="153.9" width="1.1" height="51.3"/>
  <g id="Group_1699" data-name="Group 1699">
    <path id="Path_7848" data-name="Path 7848" class="cls-1" d="M162.4,25.3c0-3.9,3-6.7,7.3-6.7,1.4,0,2.9.3,4.1,1v2.5c-1.1-1-2.6-1.5-4.1-1.5-2.4,0-4.4,1.9-4.5,4.3,0,.1,0,.2,0,.3-.2,2.4,1.7,4.5,4.1,4.7.1,0,.2,0,.3,0,1.5,0,3-.5,4.1-1.5v2.5c-1.2.7-2.7,1.1-4.1,1-4.3,0-7.3-2.8-7.3-6.7Z"/>
    <path id="Path_7849" data-name="Path 7849" class="cls-1" d="M180,18.9c2.6,0,4.3,1.4,4.3,3.6,0,1.3-.8,2.5-2,3,.9.7,1.6,1.6,2.1,2.6l.5.8,1.7,2.9h-2.8l-1.7-2.7c-1.6-2.6-2.2-2.8-3.1-2.8h-.4v5.5h-2.6v-12.9h4ZM178.6,20.8v3.7h.9c1.2,0,2.2-.6,2.2-1.9s-.9-1.9-2.2-1.9h-.9Z"/>
    <path id="Path_7850" data-name="Path 7850" class="cls-1" d="M196.3,18.9v2h-5.3v3.4h5.1v1.9h-5.1v3.6h5.5v2h-8.1v-12.9h7.9Z"/>
    <path id="Path_7851" data-name="Path 7851" class="cls-1" d="M207.6,31.8l-1.3-3.1h-5.1l-1.2,3.1h-2.5l5.3-12.9h2.2l5.5,12.9h-2.8ZM204,23.1c-.2-.4-.3-.8-.4-1.2,0,.3-.2.9-.4,1.2l-1.4,3.7h3.6l-1.5-3.7Z"/>
    <path id="Path_7852" data-name="Path 7852" class="cls-1" d="M215.6,20.8v10.9h-2.6v-10.9h-3.8v-1.9h10.2v1.9h-3.8Z"/>
    <path id="Path_7853" data-name="Path 7853" class="cls-1" d="M223.8,18.9v12.9h-2.6v-12.9h2.6Z"/>
    <path id="Path_7854" data-name="Path 7854" class="cls-1" d="M228.6,18.9l3.2,8.7c0,.3.2.8.3,1.1,0-.3.2-.9.3-1.1l3.2-8.7h2.8l-5.1,12.8h-2.6l-5.1-12.9h3Z"/>
    <path id="Path_7855" data-name="Path 7855" class="cls-1" d="M248.1,18.9v2h-5.3v3.4h5.1v1.9h-5.1v3.6h5.5v2h-8.1v-12.9h7.9Z"/>
    <path id="Path_7856" data-name="Path 7856" class="cls-1" d="M258.4,32c-1.2,0-2.4-.3-3.3-.9v-2.6c.8.9,2,1.4,3.3,1.4,1.1,0,1.9-.4,2-1.3,0,0,0-.1,0-.2,0-1-.9-1.4-2.4-2.2-1.5-.8-3-1.7-3-3.9v-.2c.1-2.5,2.5-3.4,4.2-3.4,1.1,0,2.2.2,3.1.8v2.3c-.8-.7-1.8-1.1-2.9-1-1.2,0-1.8.4-1.9,1.1,0,0,0,0,0,.1,0,.8.8,1.4,2,2.1,1.6.9,3.3,1.8,3.3,4v.2c-.1,2.7-2.3,3.7-4.4,3.7Z"/>
    <path id="Path_7857" data-name="Path 7857" class="cls-1" d="M273.3,18.9v2h-5.3v3.4h5.1v1.9h-5.1v3.6h5.5v2h-8.1v-12.9h7.9Z"/>
    <path id="Path_7858" data-name="Path 7858" class="cls-1" d="M279.9,18.9c2.6,0,4.3,1.4,4.3,3.6,0,1.3-.8,2.5-2,3,.9.7,1.6,1.6,2.1,2.6l.5.8,1.7,2.9h-2.8l-1.7-2.7c-1.6-2.6-2.2-2.8-3.1-2.8h-.4v5.5h-2.6v-12.9h4ZM278.5,20.8v3.7h.9c1.2,0,2.2-.6,2.2-1.9s-.9-1.9-2.2-1.9h-.9Z"/>
    <path id="Path_7859" data-name="Path 7859" class="cls-1" d="M288.9,18.9l3.2,8.7c0,.3.2.8.3,1.1,0-.3.2-.9.3-1.1l3.2-8.7h2.8l-5.1,12.8h-2.7l-5.1-12.8h3Z"/>
    <path id="Path_7860" data-name="Path 7860" class="cls-1" d="M303.1,18.9v12.9h-2.6v-12.9h2.6Z"/>
    <path id="Path_7861" data-name="Path 7861" class="cls-1" d="M305.5,25.3c0-3.9,3-6.7,7.3-6.7,1.4,0,2.9.3,4.1,1v2.5c-1.1-1-2.6-1.5-4.1-1.5-2.4,0-4.4,1.9-4.5,4.3,0,.1,0,.2,0,.3-.2,2.4,1.7,4.5,4.1,4.7.1,0,.2,0,.3,0,1.5,0,3-.5,4.1-1.5v2.5c-1.2.7-2.7,1.1-4.1,1-4.3,0-7.3-2.8-7.3-6.7Z"/>
    <path id="Path_7862" data-name="Path 7862" class="cls-1" d="M327.1,18.9v2h-5.3v3.4h5.1v1.9h-5.1v3.6h5.5v2h-8.1v-12.9h7.9Z"/>
    <path id="Path_7863" data-name="Path 7863" class="cls-1" d="M332.6,32c-1.2,0-2.4-.3-3.3-.9v-2.6c.8.9,2,1.4,3.3,1.4,1.1,0,1.9-.4,2-1.3,0,0,0-.1,0-.2,0-1-.9-1.4-2.4-2.2-1.5-.8-3-1.7-3-3.9v-.2c.1-2.5,2.5-3.4,4.2-3.4,1.1,0,2.2.2,3.1.8v2.3c-.8-.7-1.8-1.1-2.9-1-1.2,0-1.8.4-1.9,1.1,0,0,0,0,0,.1,0,.8.8,1.4,2,2.1,1.6.9,3.3,1.8,3.3,4v.2c-.1,2.7-2.3,3.7-4.4,3.7Z"/>
  </g>
</svg>