<?xml version="1.0" encoding="UTF-8"?>
<svg id="Layer_1" data-name="Layer 1" xmlns="http://www.w3.org/2000/svg" version="1.1" viewBox="0 0 337 51.3">
  <defs>
    <style>
      .cls-1 {
        fill: #00327a;
      }

      .cls-1, .cls-2 {
        stroke-width: 0px;
      }

      .cls-2 {
        fill: #23b2b5;
      }
    </style>
  </defs>
  <g id="Group_1700" data-name="Group 1700">
    <g id="Group_1698" data-name="Group 1698">
      <path id="Path_7828" data-name="Path 7828" class="cls-1" d="M60.4,10.6v11.3l-9.3-11.3h-3.1v17.1h3.3v-11.6l9.5,11.6h3V10.6h-3.3Z"/>
      <path id="Path_7829" data-name="Path 7829" class="cls-1" d="M77.1,25.5v1.9c-.7.4-1.5.6-2.3.6-.9,0-1.7-.4-2-1.2-.8.8-1.8,1.3-2.9,1.2-1.9,0-3.7-1.1-3.7-3.2s1.5-3.3,3.8-3.9c.8-.2,1.6-.4,2.5-.5v-.3c0-1.2-.6-1.9-1.7-1.9-1.4,0-2.7.5-3.8,1.4v-2.6c1.2-.9,2.7-1.4,4.2-1.3,1.2,0,2.4.3,3.3,1.1.8.8,1.2,1.8,1.1,2.9v5.5c0,.4,0,.6.4.6.4,0,.7,0,1-.3M70.9,25.8c.6,0,1.2-.3,1.6-.8v-2.8c-2.1.3-3.2,1-3.2,2.2s.6,1.3,1.7,1.3"/>
      <path id="Path_7830" data-name="Path 7830" class="cls-1" d="M79.5,24.1v-5.8h-1.7v-.8l4.8-4.6v3h3.6v2.4h-3.6v5.5c0,1.1.5,1.6,1.3,1.7h.4c.8,0,1.6-.3,2.3-.8v2.4c-.9.5-2,.8-3.1.8-2.4,0-4-1.2-4-3.9"/>
      <path id="Path_7831" data-name="Path 7831" class="cls-1" d="M89,12.5c0-1,.8-1.8,1.8-1.8s1.8.8,1.8,1.8-.8,1.8-1.8,1.8-1.8-.8-1.8-1.8M92.3,27.7h-3.1v-11.8h3.1v11.8Z"/>
      <path id="Path_7832" data-name="Path 7832" class="cls-1" d="M94.6,21.8c0-3.4,2.8-6.2,6.2-6.2,0,0,.2,0,.3,0,3.4-.2,6.3,2.5,6.5,6,.2,3.4-2.5,6.3-6,6.5-.2,0-.4,0-.6,0-3.4.1-6.3-2.5-6.4-5.9,0,0,0-.2,0-.3M97.9,21.8c0,2.2,1.3,3.7,3.2,3.7s3.2-1.5,3.2-3.7-1.3-3.7-3.2-3.7-3.2,1.5-3.2,3.7"/>
      <path id="Path_7833" data-name="Path 7833" class="cls-1" d="M112.7,15.9v1.4c.8-1.1,2.2-1.8,3.6-1.7,2.2,0,4.2,1.2,4.2,4.6v7.5h-3.1v-7.5c0-.9-.3-2.2-1.9-2.2-1.1,0-2.1.7-2.5,1.6v8h-3.1v-11.8h2.9Z"/>
      <path id="Path_7834" data-name="Path 7834" class="cls-1" d="M133.6,25.5v1.9c-.7.4-1.5.6-2.3.6-.9,0-1.7-.4-2-1.2-.8.8-1.8,1.3-2.9,1.2-1.9,0-3.6-1.1-3.6-3.2s1.5-3.3,3.8-3.9c.8-.2,1.6-.4,2.5-.5v-.3c0-1.2-.6-1.9-1.7-1.9-1.4,0-2.7.5-3.8,1.4v-2.6c1.2-.9,2.7-1.4,4.2-1.3,1.2,0,2.4.3,3.3,1.1.8.8,1.2,1.8,1.1,2.9v5.5c0,.4,0,.6.4.6.4,0,.7,0,1-.3M127.4,25.8c.6,0,1.2-.3,1.6-.8v-2.8c-2.1.3-3.2,1-3.2,2.2s.6,1.3,1.7,1.3"/>
      <rect id="Rectangle_945" data-name="Rectangle 945" class="cls-1" x="135.2" y="10.6" width="3.1" height="17.1"/>
      <path id="Path_7835" data-name="Path 7835" class="cls-1" d="M66.3,33.4v.5h-.5c-.1.2-.2.3-.2.4v3.4c.2,1.3-.7,2.4-2,2.6-.2,0-.4,0-.7,0-1.8,0-2.6-.9-2.6-2.7v-3.3c0-.1,0-.2-.2-.3h-.5v-.6h2.9v.5h-.8c-.1.2-.2.3-.2.4v3.4c0,1.4.6,2.1,1.6,2.1s1.6-.8,1.6-2v-3.4c0-.2,0-.2-.2-.3h-.8v-.7h2.5Z"/>
      <path id="Path_7836" data-name="Path 7836" class="cls-1" d="M73.8,34.3v5.9h-1l-3.5-5.4v4.5c0,.1,0,.2.2.3,0,0,0,0,0,0h.8v.6h-2.7v-.5h.7c.1-.1.2-.3.2-.4,0,0,0,0,0,0v-5c0-.1,0-.3-.2-.3h-.7v-.7h2.1l3.3,5.1v-4.2c0-.1,0-.3-.2-.3h-.7v-.7h2.5v.5h-.6c-.1.2-.2.3-.2.4"/>
      <path id="Path_7837" data-name="Path 7837" class="cls-1" d="M79,33.9h-.7c-.1.1-.2.3-.2.4,0,0,0,0,0,0v5c0,.1,0,.3.2.3,0,0,0,0,0,0h.7v.6h-3v-.5h.7c.1-.1.2-.3.2-.4,0,0,0,0,0,0v-5c0-.1,0-.3-.2-.3h-.7v-.7h3v.5Z"/>
      <path id="Path_7838" data-name="Path 7838" class="cls-1" d="M80.9,34.3c0-.1-.1-.2-.3-.2h-.5v-.7h2.9v.5l-.9.2,1.8,5.1,1.6-5-.9-.2v-.5h2.4v.5h-.6c-.1.2-.2.2-.3.4l-2,6h-1.1l-2.2-6Z"/>
      <path id="Path_7839" data-name="Path 7839" class="cls-1" d="M92.6,35.2l-.2-.8c0-.1-.1-.2-.3-.3-.3,0-.6-.1-.9-.1h-1v2.5h2c0,0,0,.7,0,.7h-2s0,2.5,0,2.5h1.2c.3,0,.6,0,.9-.1.1,0,.2-.1.2-.3l.3-1h.6c0,.7,0,1.3-.2,2h-5.2v-.5h.7c.1-.1.2-.3.2-.4,0,0,0,0,0,0v-5c0-.1,0-.3-.2-.3h-.7v-.7h5c0,.6,0,1.2,0,1.7h-.6Z"/>
      <path id="Path_7840" data-name="Path 7840" class="cls-1" d="M95.4,40.2v-.5h.7c.1-.1.2-.3.2-.4,0,0,0,0,0,0v-5c0-.1,0-.2-.2-.3,0,0,0,0,0,0h-.7v-.7h1.5c.5,0,.9,0,1.5,0,1.8,0,2.5.6,2.5,1.8,0,.9-.6,1.8-1.5,1.9.4.2.7.6.9,1l.6,1.2c0,.2.2.3.4.3h.5v.6h-1.5c-.3,0-.5-.4-.7-1l-.4-1c-.1-.3-.3-.7-.6-1h-1v2.1c0,.1,0,.2.2.3,0,0,0,0,0,0h.7v.6h-3.1ZM99.6,35.2c0-.9-.4-1.3-1.4-1.3s-.6,0-.7,0v2.8c.3,0,.8,0,1,0,.7,0,1.2-.5,1.2-1.5"/>
      <path id="Path_7841" data-name="Path 7841" class="cls-1" d="M105.4,40.4c-.8,0-1.5-.2-2.2-.6,0-.6,0-1.2,0-1.8h.7l.2,1.1c0,.1,0,.2.2.3.3.3.7.4,1.1.4.8,0,1.2-.4,1.2-1.1s-.6-1.1-1.5-1.6-1.8-.9-1.8-2.1.8-1.9,2.3-1.9c.6,0,1.3.1,1.9.4,0,.6,0,1.1,0,1.7h-.7l-.2-.9c0-.1,0-.3-.2-.3-.3-.2-.6-.3-.9-.3-.7,0-1.1.4-1.1,1s.6,1,1.6,1.5c1,.5,1.9,1,1.9,2.1s-.7,2-2.5,2"/>
      <path id="Path_7842" data-name="Path 7842" class="cls-1" d="M112.2,33.9h-.7c-.1.1-.2.3-.2.4,0,0,0,0,0,0v5c0,.1,0,.3.2.3,0,0,0,0,0,0h.7v.6h-3v-.5h.7c.1-.1.2-.3.2-.4,0,0,0,0,0,0v-5c0-.1,0-.3-.2-.3h-.7v-.7h3v.5Z"/>
      <path id="Path_7843" data-name="Path 7843" class="cls-1" d="M114.9,40.2v-.5l1-.2c.1,0,.2-.1.2-.2,0,0,0,0,0,0v-5.4h-.5c-.3,0-.5,0-.8,0-.1,0-.2.1-.2.3l-.3,1.3h-.6c0-.7,0-1.5,0-2.2h6c0,.7,0,1.5,0,2.2h-.6l-.3-1.3c0-.1-.1-.2-.2-.3-.3,0-.5,0-.8,0h-.5v5.4c0,.1,0,.2.2.3,0,0,0,0,0,0l1,.2v.5h-3.7Z"/>
      <path id="Path_7844" data-name="Path 7844" class="cls-1" d="M122.3,40.2v-.5l.8-.2c.1,0,.2-.1.2-.2,0,0,0,0,0,0v-1.7l-1.9-3.3c0-.1-.2-.2-.3-.2h-.6v-.6h2.9v.5l-.8.2,1.5,2.7,1.4-2.7-.8-.2v-.5h2.3v.5h-.5c-.1.1-.2.2-.3.3l-1.7,3.4v1.7c0,.2,0,.2.2.3l.8.2v.5h-3.4Z"/>
      <path id="Path_7845" data-name="Path 7845" class="cls-1" d="M13.9,10.7H0v2.6s.2,0,1.9.3c2.7.5,2.8.3,2.8,2.2v16c0,4.8,3.7,8.8,8.2,8.8h1V10.7Z"/>
      <path id="Path_7846" data-name="Path 7846" class="cls-2" d="M13.9,10.7v14.4l13.8,15.6v-14.4l-13.8-15.6Z"/>
      <path id="Path_7847" data-name="Path 7847" class="cls-1" d="M27.6,10.7h13.9v2.6s-.2,0-1.9.3c-2.7.5-2.8.3-2.8,2.2v16c0,4.8-3.7,8.8-8.2,8.8h-1V10.7Z"/>
    </g>
    <rect id="Rectangle_946" data-name="Rectangle 946" class="cls-1" x="153.9" width="1.1" height="51.3"/>
    <g id="Group_1699" data-name="Group 1699">
      <path id="Path_7848" data-name="Path 7848" class="cls-1" d="M162.4,25.3c0-3.9,3-6.7,7.3-6.7,1.4,0,2.9.3,4.1,1v2.5c-1.1-1-2.6-1.5-4.1-1.5-2.4,0-4.4,1.9-4.5,4.3,0,.1,0,.2,0,.3-.2,2.4,1.7,4.5,4.1,4.7.1,0,.2,0,.3,0,1.5,0,3-.5,4.1-1.5v2.5c-1.2.7-2.7,1.1-4.1,1-4.3,0-7.3-2.8-7.3-6.7Z"/>
      <path id="Path_7849" data-name="Path 7849" class="cls-1" d="M180,18.9c2.6,0,4.3,1.4,4.3,3.6,0,1.3-.8,2.5-2,3,.9.7,1.6,1.6,2.1,2.6l.5.8,1.7,2.9h-2.8l-1.7-2.7c-1.6-2.6-2.2-2.8-3.1-2.8h-.4v5.5h-2.6v-12.9h4ZM178.6,20.8v3.7h.9c1.2,0,2.2-.6,2.2-1.9s-.9-1.9-2.2-1.9h-.9Z"/>
      <path id="Path_7850" data-name="Path 7850" class="cls-1" d="M196.3,18.9v2h-5.3v3.4h5.1v1.9h-5.1v3.6h5.5v2h-8.1v-12.9h7.9Z"/>
      <path id="Path_7851" data-name="Path 7851" class="cls-1" d="M207.6,31.8l-1.3-3.1h-5.1l-1.2,3.1h-2.5l5.3-12.9h2.2l5.5,12.9h-2.8ZM204,23.1c-.2-.4-.3-.8-.4-1.2,0,.3-.2.9-.4,1.2l-1.4,3.7h3.6l-1.5-3.7Z"/>
      <path id="Path_7852" data-name="Path 7852" class="cls-1" d="M215.6,20.8v10.9h-2.6v-10.9h-3.8v-1.9h10.2v1.9h-3.8Z"/>
      <path id="Path_7853" data-name="Path 7853" class="cls-1" d="M223.8,18.9v12.9h-2.6v-12.9h2.6Z"/>
      <path id="Path_7854" data-name="Path 7854" class="cls-1" d="M228.6,18.9l3.2,8.7c0,.3.2.8.3,1.1,0-.3.2-.9.3-1.1l3.2-8.7h2.8l-5.1,12.8h-2.6l-5.1-12.9h3Z"/>
      <path id="Path_7855" data-name="Path 7855" class="cls-1" d="M248.1,18.9v2h-5.3v3.4h5.1v1.9h-5.1v3.6h5.5v2h-8.1v-12.9h7.9Z"/>
      <path id="Path_7856" data-name="Path 7856" class="cls-1" d="M258.4,32c-1.2,0-2.4-.3-3.3-.9v-2.6c.8.9,2,1.4,3.3,1.4,1.1,0,1.9-.4,2-1.3,0,0,0-.1,0-.2,0-1-.9-1.4-2.4-2.2-1.5-.8-3-1.7-3-3.9v-.2c.1-2.5,2.5-3.4,4.2-3.4,1.1,0,2.2.2,3.1.8v2.3c-.8-.7-1.8-1.1-2.9-1-1.2,0-1.8.4-1.9,1.1,0,0,0,0,0,.1,0,.8.8,1.4,2,2.1,1.6.9,3.3,1.8,3.3,4v.2c-.1,2.7-2.3,3.7-4.4,3.7Z"/>
      <path id="Path_7857" data-name="Path 7857" class="cls-1" d="M273.3,18.9v2h-5.3v3.4h5.1v1.9h-5.1v3.6h5.5v2h-8.1v-12.9h7.9Z"/>
      <path id="Path_7858" data-name="Path 7858" class="cls-1" d="M279.9,18.9c2.6,0,4.3,1.4,4.3,3.6,0,1.3-.8,2.5-2,3,.9.7,1.6,1.6,2.1,2.6l.5.8,1.7,2.9h-2.8l-1.7-2.7c-1.6-2.6-2.2-2.8-3.1-2.8h-.4v5.5h-2.6v-12.9h4ZM278.5,20.8v3.7h.9c1.2,0,2.2-.6,2.2-1.9s-.9-1.9-2.2-1.9h-.9Z"/>
      <path id="Path_7859" data-name="Path 7859" class="cls-1" d="M288.9,18.9l3.2,8.7c0,.3.2.8.3,1.1,0-.3.2-.9.3-1.1l3.2-8.7h2.8l-5.1,12.8h-2.7l-5.1-12.8h3Z"/>
      <path id="Path_7860" data-name="Path 7860" class="cls-1" d="M303.1,18.9v12.9h-2.6v-12.9h2.6Z"/>
      <path id="Path_7861" data-name="Path 7861" class="cls-1" d="M305.5,25.3c0-3.9,3-6.7,7.3-6.7,1.4,0,2.9.3,4.1,1v2.5c-1.1-1-2.6-1.5-4.1-1.5-2.4,0-4.4,1.9-4.5,4.3,0,.1,0,.2,0,.3-.2,2.4,1.7,4.5,4.1,4.7.1,0,.2,0,.3,0,1.5,0,3-.5,4.1-1.5v2.5c-1.2.7-2.7,1.1-4.1,1-4.3,0-7.3-2.8-7.3-6.7Z"/>
      <path id="Path_7862" data-name="Path 7862" class="cls-1" d="M327.1,18.9v2h-5.3v3.4h5.1v1.9h-5.1v3.6h5.5v2h-8.1v-12.9h7.9Z"/>
      <path id="Path_7863" data-name="Path 7863" class="cls-1" d="M332.6,32c-1.2,0-2.4-.3-3.3-.9v-2.6c.8.9,2,1.4,3.3,1.4,1.1,0,1.9-.4,2-1.3,0,0,0-.1,0-.2,0-1-.9-1.4-2.4-2.2-1.5-.8-3-1.7-3-3.9v-.2c.1-2.5,2.5-3.4,4.2-3.4,1.1,0,2.2.2,3.1.8v2.3c-.8-.7-1.8-1.1-2.9-1-1.2,0-1.8.4-1.9,1.1,0,0,0,0,0,.1,0,.8.8,1.4,2,2.1,1.6.9,3.3,1.8,3.3,4v.2c-.1,2.7-2.3,3.7-4.4,3.7Z"/>
    </g>
  </g>
</svg>