<svg xmlns="http://www.w3.org/2000/svg" width="900" height="200" viewBox="0 0 900 200" fill="none"><path d="M240.61 59.57C228.52 47.23 207.4 47.23 195.31 59.57L184 71.13L172.65 59.57C169.706 56.5418 166.185 54.1347 162.294 52.4911C158.404 50.8474 154.223 50.0005 150 50.0005C145.776 50.0005 141.596 50.8474 137.706 52.4911C133.815 54.1347 130.294 56.5418 127.35 59.57L116 71.13L104.69 59.57C101.746 56.5418 98.2245 54.1347 94.3341 52.4911C90.4437 50.8474 86.2632 50.0005 82.0399 50.0005C77.8165 50.0005 73.636 50.8474 69.7456 52.4911C65.8552 54.1347 62.3339 56.5418 59.3899 59.57C53.3681 65.7556 49.9985 74.0473 49.9985 82.68C49.9985 91.3127 53.3681 99.6044 59.3899 105.79L93.3899 140.44C96.3361 143.466 99.8588 145.871 103.75 147.513C107.641 149.155 111.821 150.002 116.045 150.002C120.268 150.002 124.449 149.155 128.34 147.513C132.231 145.871 135.754 143.466 138.7 140.44L150 128.89L161.33 140.44C164.276 143.466 167.799 145.871 171.69 147.513C175.581 149.155 179.761 150.002 183.985 150.002C188.208 150.002 192.389 149.155 196.28 147.513C200.171 145.871 203.694 143.466 206.64 140.44L240.64 105.79C246.662 99.6044 250.031 91.3127 250.031 82.68C250.031 74.0473 246.662 65.7556 240.64 59.57H240.61ZM65.9999 82.68C65.9766 78.3617 67.6626 74.2095 70.6899 71.13C72.1608 69.614 73.9211 68.4088 75.8665 67.5858C77.8118 66.7628 79.9026 66.3387 82.0149 66.3387C84.1271 66.3387 86.2179 66.7628 88.1633 67.5858C90.1086 68.4088 91.8689 69.614 93.3399 71.13L104.7 82.68L93.3599 94.23C91.1149 96.4303 88.2782 97.9299 85.1958 98.546C82.1133 99.1622 78.9182 98.8682 75.9999 97.7C75.7699 97.61 75.5599 97.46 75.3399 97.36C74.6097 97.0473 73.9043 96.6796 73.2299 96.26C72.8815 95.9948 72.5477 95.7111 72.2299 95.41C71.7308 95.0446 71.2533 94.6506 70.7999 94.23C67.7341 91.1671 66.008 87.0136 65.9999 82.68ZM127.33 128.89C125.856 130.402 124.094 131.605 122.148 132.425C120.202 133.246 118.112 133.669 116 133.669C113.888 133.669 111.797 133.246 109.852 132.425C107.906 131.605 106.144 130.402 104.67 128.89L90.3399 114.25C91.7047 113.891 93.0416 113.433 94.3399 112.88C96.0413 112.138 97.6743 111.248 99.2199 110.22C99.6099 109.97 99.9899 109.71 100.37 109.43C101.923 108.346 103.379 107.128 104.72 105.79L127.38 82.68L138.7 71.13C141.723 68.1606 145.792 66.4969 150.03 66.4969C154.268 66.4969 158.336 68.1606 161.36 71.13L172.69 82.68L138.69 117.34L127.33 128.89ZM195.33 128.89C193.856 130.402 192.094 131.605 190.148 132.425C188.202 133.246 186.112 133.669 184 133.669C181.888 133.669 179.797 133.246 177.852 132.425C175.906 131.605 174.144 130.402 172.67 128.89L161.35 117.34L176.45 101.93L184 94.23L195.33 105.79C196.671 107.128 198.127 108.346 199.68 109.43C200.06 109.71 200.44 109.97 200.83 110.22C202.375 111.248 204.008 112.138 205.71 112.88C207.008 113.433 208.345 113.891 209.71 114.25L195.33 128.89ZM206.66 94.23L195.31 82.68L206.64 71.13C209.661 68.1588 213.728 66.4937 217.965 66.4937C222.202 66.4937 226.269 68.1588 229.29 71.13C232.297 74.2229 233.979 78.3664 233.979 82.68C233.979 86.9935 232.297 91.137 229.29 94.23C226.267 97.1964 222.2 98.8582 217.965 98.8582C213.729 98.8582 209.663 97.1964 206.64 94.23H206.66Z" fill="#6DED97"></path><path d="M301.36 51.37H319C319.223 51.3611 319.443 51.4272 319.624 51.5576C319.805 51.6881 319.938 51.8755 320 52.09L338.83 116.16L359.43 52.06C359.495 51.8595 359.623 51.6848 359.793 51.5609C359.964 51.4369 360.169 51.3701 360.38 51.37H373.85C374.062 51.3708 374.269 51.4391 374.439 51.5649C374.61 51.6907 374.736 51.8676 374.8 52.07L395.27 116.16L414.27 52.09C414.332 51.8755 414.465 51.6881 414.646 51.5576C414.827 51.4272 415.047 51.3611 415.27 51.37H432.89C433.051 51.3625 433.211 51.394 433.357 51.4618C433.503 51.5295 433.631 51.6316 433.729 51.7592C433.827 51.8868 433.893 52.0363 433.921 52.1949C433.949 52.3534 433.939 52.5164 433.89 52.67L404.23 147.93C404.166 148.132 404.04 148.309 403.869 148.435C403.699 148.561 403.492 148.629 403.28 148.63H389.76C389.55 148.631 389.346 148.565 389.175 148.443C389.005 148.321 388.877 148.149 388.81 147.95L367 83.15L345.3 148C345.233 148.199 345.105 148.371 344.935 148.493C344.764 148.615 344.56 148.681 344.35 148.68H330.87C330.658 148.679 330.452 148.611 330.281 148.485C330.11 148.359 329.984 148.182 329.92 147.98L300.4 52.67C300.353 52.5197 300.342 52.3604 300.368 52.205C300.394 52.0497 300.456 51.9026 300.55 51.7759C300.643 51.6492 300.765 51.5464 300.906 51.4758C301.047 51.4053 301.203 51.369 301.36 51.37Z" fill="#FCFCFC"></path><path d="M515 51.37H531.35C531.615 51.37 531.87 51.4754 532.057 51.6629C532.245 51.8504 532.35 52.1048 532.35 52.37V147.63C532.35 147.895 532.245 148.15 532.057 148.337C531.87 148.525 531.615 148.63 531.35 148.63H515C514.735 148.63 514.48 148.525 514.293 148.337C514.105 148.15 514 147.895 514 147.63V52.37C514 52.1048 514.105 51.8504 514.293 51.6629C514.48 51.4754 514.735 51.37 515 51.37Z" fill="#FCFCFC"></path><path d="M549.88 51.37H566.24C566.505 51.37 566.759 51.4754 566.947 51.6629C567.134 51.8504 567.24 52.1048 567.24 52.37V147.63C567.24 147.895 567.134 148.15 566.947 148.337C566.759 148.525 566.505 148.63 566.24 148.63H549.88C549.615 148.63 549.36 148.525 549.173 148.337C548.985 148.15 548.88 147.895 548.88 147.63V52.37C548.88 52.1048 548.985 51.8504 549.173 51.6629C549.36 51.4754 549.615 51.37 549.88 51.37Z" fill="#FCFCFC"></path><path d="M578 125.4L591.48 119.21C591.603 119.155 591.737 119.125 591.873 119.123C592.008 119.121 592.142 119.146 592.268 119.198C592.393 119.249 592.507 119.326 592.601 119.422C592.696 119.519 592.771 119.634 592.82 119.76C595.73 126.88 601.82 133.01 611.21 133.01C618.88 133.01 625.46 129.01 625.46 120.55C625.46 113.42 621.21 110.27 611.35 106.3L605.15 104C591.86 98.66 580.9 91.26 580.9 76.47C580.9 60.17 594.47 50.03 610.9 50.03C627.16 50.03 637.2 59.75 641.77 69.74C641.871 69.9685 641.883 70.2267 641.803 70.4636C641.724 70.7005 641.559 70.899 641.34 71.02L629 77.87C628.884 77.9334 628.758 77.9733 628.627 77.9875C628.496 78.0017 628.363 77.9898 628.237 77.9527C628.11 77.9155 627.993 77.8537 627.89 77.7709C627.788 77.6881 627.703 77.5858 627.64 77.47C623.64 70.26 618.4 66.71 611.55 66.71C604.7 66.71 599.36 70.14 599.36 76.58C599.36 81.64 602.23 85.58 612.92 89.73L619.5 92.33C636.5 99.18 644.97 106.85 644.97 120.68C644.97 140.41 627.71 150 611.41 150C594.75 150 581.12 140.38 577.41 126.57C577.351 126.337 577.378 126.09 577.487 125.875C577.595 125.66 577.777 125.491 578 125.4Z" fill="#FCFCFC"></path><path d="M655.16 113C655.16 88.35 672.83 76 689.41 76C702.15 76 710.41 83 712.15 87H712.56V78.4C712.56 78.1348 712.666 77.8804 712.853 77.6929C713.041 77.5054 713.295 77.4 713.56 77.4H729.91C730.175 77.4 730.43 77.5054 730.617 77.6929C730.805 77.8804 730.91 78.1348 730.91 78.4V147.63C730.91 147.895 730.805 148.15 730.617 148.337C730.43 148.525 730.175 148.63 729.91 148.63H713.56C713.295 148.63 713.041 148.525 712.853 148.337C712.666 148.15 712.56 147.895 712.56 147.63V139H712.15C710.37 143 702.15 150 689.41 150C672.83 150 655.16 137.67 655.16 113ZM693.16 133.55C703.43 133.55 713.02 126.43 713.02 113C713.02 99.57 703.43 92.46 693.16 92.46C682.89 92.46 673.24 99.73 673.24 113C673.24 126.27 682.83 133.56 693.11 133.56L693.16 133.55Z" fill="#FCFCFC"></path><path d="M745.65 51.37H762C762.265 51.37 762.519 51.4754 762.707 51.6629C762.895 51.8504 763 52.1048 763 52.37V66.53C763 66.7952 762.895 67.0496 762.707 67.2371C762.519 67.4246 762.265 67.53 762 67.53H745.65C745.385 67.53 745.13 67.4246 744.943 67.2371C744.755 67.0496 744.65 66.7952 744.65 66.53V52.37C744.65 52.1048 744.755 51.8504 744.943 51.6629C745.13 51.4754 745.385 51.37 745.65 51.37ZM745.65 77.37H762C762.265 77.37 762.519 77.4754 762.707 77.6629C762.895 77.8504 763 78.1048 763 78.37V147.6C763 147.865 762.895 148.12 762.707 148.307C762.519 148.495 762.265 148.6 762 148.6H745.65C745.385 148.6 745.13 148.495 744.943 148.307C744.755 148.12 744.65 147.865 744.65 147.6V78.4C744.65 78.1348 744.755 77.8804 744.943 77.6929C745.13 77.5054 745.385 77.4 745.65 77.4V77.37Z" fill="#FCFCFC"></path><path d="M832.64 148.63C832.375 148.63 832.12 148.525 831.933 148.337C831.745 148.15 831.64 147.895 831.64 147.63V139H831.23C829.45 143 821.23 150 808.49 150C791.92 150 774.25 137.67 774.25 113C774.25 88.33 791.92 76 808.49 76C821.23 76 829.49 83 831.23 87H831.64V52.37C831.64 52.1048 831.745 51.8504 831.933 51.6629C832.12 51.4754 832.375 51.37 832.64 51.37H849C849.265 51.37 849.52 51.4754 849.707 51.6629C849.895 51.8504 850 52.1048 850 52.37V147.63C850 147.895 849.895 148.15 849.707 148.337C849.52 148.525 849.265 148.63 849 148.63H832.64ZM812.19 133.56C822.47 133.56 832.05 126.44 832.05 113.01C832.05 99.58 822.47 92.47 812.19 92.47C801.91 92.47 792.33 99.73 792.33 113C792.33 126.27 801.92 133.56 812.19 133.56Z" fill="#FCFCFC"></path><path d="M466.64 135C458.35 135 450.92 129.56 449.31 119.62C449.269 119.469 449.265 119.31 449.296 119.157C449.328 119.004 449.395 118.86 449.492 118.738C449.59 118.615 449.714 118.517 449.856 118.452C449.998 118.386 450.154 118.355 450.31 118.36H501C501.246 118.362 501.483 118.273 501.668 118.111C501.852 117.948 501.971 117.724 502 117.48C502.173 115.996 502.26 114.504 502.26 113.01C502.26 92.59 486.33 76.01 466.67 76.01C447.01 76.01 431.08 92.57 431.08 113.01C431.08 133.45 447.02 150.01 466.67 150.01C473.783 149.953 480.725 147.823 486.645 143.879C492.565 139.936 497.206 134.352 500 127.81C500.061 127.658 500.083 127.494 500.065 127.332C500.047 127.169 499.99 127.014 499.898 126.878C499.807 126.743 499.683 126.633 499.539 126.556C499.394 126.48 499.233 126.44 499.07 126.44H482.52C482.364 126.441 482.21 126.479 482.071 126.55C481.932 126.621 481.812 126.724 481.72 126.85C478 132 472.51 135 466.64 135ZM449.33 105.42C452 96 458.91 91.51 467 91.51C475.29 91.51 482.45 96.18 484.06 105.51C484.088 105.656 484.084 105.807 484.046 105.951C484.009 106.095 483.94 106.229 483.844 106.344C483.748 106.458 483.628 106.549 483.492 106.61C483.357 106.672 483.209 106.703 483.06 106.7H450.29C450.135 106.7 449.982 106.664 449.843 106.594C449.704 106.525 449.583 106.424 449.49 106.3C449.397 106.176 449.334 106.032 449.306 105.879C449.278 105.726 449.287 105.569 449.33 105.42Z" fill="#FCFCFC"></path></svg>